<?xml version="1.0" standalone="no"?>
<!DOCTYPE svg PUBLIC "-//W3C//DTD SVG 20010904//EN"
 "http://www.w3.org/TR/2001/REC-SVG-20010904/DTD/svg10.dtd">
<svg version="1.0" xmlns="http://www.w3.org/2000/svg"
 width="512.000000pt" height="512.000000pt" viewBox="0 0 512.000000 512.000000"
 preserveAspectRatio="xMidYMid meet">
<metadata>
Created by potrace 1.11, written by Peter Selinger 2001-2013
</metadata>
<g transform="translate(0.000000,512.000000) scale(0.100000,-0.100000)"
fill="#000000" stroke="none">
<path d="M0 2560 l0 -2560 2560 0 2560 0 0 2560 0 2560 -2560 0 -2560 0 0
-2560z m1611 1094 c197 -58 365 -303 424 -620 9 -46 14 -92 12 -102 -3 -11 -5
-8 -6 9 -2 55 -44 188 -86 276 -52 107 -128 195 -207 238 -46 26 -63 30 -133
30 -65 0 -90 -5 -130 -25 -137 -67 -247 -247 -296 -482 -28 -137 -23 -386 10
-518 31 -123 107 -273 173 -341 79 -82 144 -113 238 -114 97 0 153 26 237 112
71 71 138 197 173 323 13 47 19 60 15 34 -9 -74 -56 -218 -100 -307 -39 -81
-41 -88 -22 -83 12 3 67 16 122 27 108 23 161 24 795 22 144 -1 253 -15 377
-49 19 -5 17 2 -22 83 -44 89 -91 233 -100 307 -4 26 2 13 15 -34 35 -126 102
-252 173 -323 84 -86 140 -112 237 -112 94 1 159 32 238 114 66 68 142 218
173 341 33 132 38 381 10 518 -49 235 -159 415 -296 482 -40 20 -65 25 -130
25 -70 0 -87 -4 -133 -30 -79 -43 -155 -131 -207 -238 -42 -88 -84 -221 -86
-276 -1 -17 -3 -20 -6 -9 -6 26 24 176 53 265 60 180 169 340 281 411 294 187
616 -86 710 -602 35 -188 20 -468 -34 -656 -79 -276 -262 -488 -437 -507 l-42
-5 28 -55 c22 -45 28 -69 28 -123 0 -204 -221 -377 -580 -454 -36 -8 -54 -15
-40 -15 23 -1 23 -2 -15 -42 -23 -23 -75 -58 -121 -80 -224 -109 -446 -110
-669 -4 -104 49 -188 115 -160 125 10 4 -16 13 -66 24 -179 38 -327 109 -428
202 -120 110 -154 246 -93 367 l28 55 -42 5 c-175 19 -358 231 -437 507 -54
188 -69 468 -34 656 72 393 277 656 518 663 19 1 60 -6 90 -15z m356 -609 c26
-29 49 -67 59 -100 10 -30 22 -52 27 -48 5 3 6 -53 3 -143 -4 -82 -7 -169 -8
-194 0 -25 -3 -35 -5 -23 -4 18 -10 10 -36 -40 -86 -164 -216 -138 -288 58
-33 88 -33 282 0 375 59 167 158 213 248 115z m1329 36 c45 -27 79 -76 105
-151 31 -88 34 -277 5 -360 -71 -209 -205 -243 -293 -73 -26 50 -32 58 -36 40
-2 -12 -5 -2 -5 23 -1 25 -4 115 -7 200 -3 87 -2 149 3 142 5 -8 14 5 25 41 9
29 33 72 53 96 55 64 96 75 150 42z"/>
</g>
</svg>
